<svg xmlns="http://www.w3.org/2000/svg" width="600" height="600" viewBox="0 0 600 600">
  <rect width="600" height="600" fill="#FAFFF5"/>
  <g transform="translate(300,260)">
    <ellipse cx="0" cy="-30" rx="10" ry="25" fill="#FFFFFF" stroke="#E0E0E0" stroke-width="1" transform="rotate(0,0,0)"/>
    <ellipse cx="0" cy="-30" rx="10" ry="25" fill="#FFFFFF" stroke="#E0E0E0" stroke-width="1" transform="rotate(45,0,0)"/>
    <ellipse cx="0" cy="-30" rx="10" ry="25" fill="#FFFFFF" stroke="#E0E0E0" stroke-width="1" transform="rotate(90,0,0)"/>
    <ellipse cx="0" cy="-30" rx="10" ry="25" fill="#FFFFFF" stroke="#E0E0E0" stroke-width="1" transform="rotate(135,0,0)"/>
    <ellipse cx="0" cy="-30" rx="10" ry="25" fill="#FFFFFF" stroke="#E0E0E0" stroke-width="1" transform="rotate(180,0,0)"/>
    <ellipse cx="0" cy="-30" rx="10" ry="25" fill="#FFFFFF" stroke="#E0E0E0" stroke-width="1" transform="rotate(225,0,0)"/>
    <ellipse cx="0" cy="-30" rx="10" ry="25" fill="#FFFFFF" stroke="#E0E0E0" stroke-width="1" transform="rotate(270,0,0)"/>
    <ellipse cx="0" cy="-30" rx="10" ry="25" fill="#FFFFFF" stroke="#E0E0E0" stroke-width="1" transform="rotate(315,0,0)"/>
    <circle cx="0" cy="0" r="16" fill="#FDD835"/>
    <path d="M0,18 Q-2,70 -3,110" stroke="#2E7D32" stroke-width="6" fill="none" stroke-linecap="round"/>
    <ellipse cx="-15" cy="55" rx="16" ry="8" fill="#43A047" transform="rotate(-35,-15,55)"/>
  </g>
</svg>
