<svg xmlns="http://www.w3.org/2000/svg" width="600" height="600" viewBox="0 0 600 600">
  <rect width="600" height="600" fill="#F5FFF5"/>
  <g transform="translate(300,310)">
    <path d="M-30,40 L-35,80 L35,80 L30,40 Z" fill="#A1887F"/>
    <rect x="-35" y="35" width="70" height="10" rx="3" fill="#8D6E63"/>
    <path d="M0,35 Q-3,-30 -5,-70" stroke="#2E7D32" stroke-width="5" fill="none" stroke-linecap="round"/>
    <g transform="translate(-10,-80)">
      <ellipse cx="0" cy="-8" rx="8" ry="14" fill="#E1BEE7"/>
      <ellipse cx="-10" cy="0" rx="12" ry="6" fill="#CE93D8" transform="rotate(-15,-10,0)"/>
      <ellipse cx="10" cy="0" rx="12" ry="6" fill="#CE93D8" transform="rotate(15,10,0)"/>
      <circle cx="0" cy="2" r="4" fill="#7B1FA2"/>
    </g>
    <g transform="translate(8,-55)">
      <ellipse cx="0" cy="-6" rx="6" ry="11" fill="#F3E5F5"/>
      <ellipse cx="-8" cy="0" rx="10" ry="5" fill="#E1BEE7" transform="rotate(-15,-8,0)"/>
      <ellipse cx="8" cy="0" rx="10" ry="5" fill="#E1BEE7" transform="rotate(15,8,0)"/>
      <circle cx="0" cy="2" r="3" fill="#9C27B0"/>
    </g>
    <ellipse cx="15" cy="5" rx="15" ry="8" fill="#43A047" transform="rotate(25,15,5)"/>
    <ellipse cx="-12" cy="20" rx="14" ry="7" fill="#388E3C" transform="rotate(-30,-12,20)"/>
  </g>
</svg>
