<svg xmlns="http://www.w3.org/2000/svg" width="600" height="600" viewBox="0 0 600 600">
  <rect width="600" height="600" fill="#FFF5F7"/>
  <g transform="translate(300,260)">
    <ellipse cx="0" cy="-55" rx="30" ry="50" fill="#C62828" opacity="0.85"/>
    <ellipse cx="-35" cy="-30" rx="25" ry="42" fill="#D32F2F" opacity="0.8" transform="rotate(-20,-35,-30)"/>
    <ellipse cx="35" cy="-30" rx="25" ry="42" fill="#D32F2F" opacity="0.8" transform="rotate(20,35,-30)"/>
    <ellipse cx="-20" cy="-50" rx="22" ry="38" fill="#E53935" opacity="0.75" transform="rotate(-10,-20,-50)"/>
    <ellipse cx="20" cy="-50" rx="22" ry="38" fill="#E53935" opacity="0.75" transform="rotate(10,20,-50)"/>
    <ellipse cx="-45" cy="-15" rx="18" ry="30" fill="#EF5350" opacity="0.7" transform="rotate(-35,-45,-15)"/>
    <ellipse cx="45" cy="-15" rx="18" ry="30" fill="#EF5350" opacity="0.7" transform="rotate(35,45,-15)"/>
    <circle cx="0" cy="-25" r="15" fill="#B71C1C"/>
    <path d="M0,10 Q-2,80 -5,120" stroke="#2E7D32" stroke-width="8" fill="none" stroke-linecap="round"/>
    <ellipse cx="-22" cy="55" rx="20" ry="10" fill="#388E3C" transform="rotate(-40,-22,55)"/>
    <ellipse cx="18" cy="75" rx="18" ry="9" fill="#43A047" transform="rotate(35,18,75)"/>
  </g>
</svg>
