<svg xmlns="http://www.w3.org/2000/svg" width="200" height="200" viewBox="0 0 200 200">
  <circle cx="100" cy="100" r="100" fill="#FFF0F5"/>
  <g transform="translate(100,85)">
    <ellipse cx="0" cy="-20" rx="12" ry="18" fill="#E91E63" opacity="0.8"/>
    <ellipse cx="-15" cy="-12" rx="10" ry="16" fill="#F06292" opacity="0.7" transform="rotate(-25,-15,-12)"/>
    <ellipse cx="15" cy="-12" rx="10" ry="16" fill="#F06292" opacity="0.7" transform="rotate(25,15,-12)"/>
    <ellipse cx="-8" cy="-18" rx="9" ry="14" fill="#EC407A" opacity="0.75" transform="rotate(-12,-8,-18)"/>
    <ellipse cx="8" cy="-18" rx="9" ry="14" fill="#EC407A" opacity="0.75" transform="rotate(12,8,-18)"/>
    <circle cx="0" cy="-10" r="6" fill="#AD1457"/>
    <line x1="0" y1="5" x2="0" y2="35" stroke="#2E7D32" stroke-width="4" stroke-linecap="round"/>
    <ellipse cx="-10" cy="20" rx="8" ry="4" fill="#43A047" transform="rotate(-30,-10,20)"/>
    <ellipse cx="10" cy="25" rx="8" ry="4" fill="#43A047" transform="rotate(30,10,25)"/>
  </g>
  <text x="100" y="150" text-anchor="middle" font-family="Arial, sans-serif" font-size="11" fill="#880E4F" font-weight="600">BUKETLER</text>
</svg>
