<svg xmlns="http://www.w3.org/2000/svg" width="800" height="400" viewBox="0 0 800 400">
  <rect width="800" height="400" fill="#E8F5E9"/>
  <g transform="translate(400,190)">
    <ellipse cx="0" cy="-35" rx="14" ry="24" fill="#EF5350" opacity="0.8"/>
    <ellipse cx="-18" cy="-22" rx="12" ry="20" fill="#E57373" opacity="0.7" transform="rotate(-18,-18,-22)"/>
    <ellipse cx="18" cy="-22" rx="12" ry="20" fill="#E57373" opacity="0.7" transform="rotate(18,18,-22)"/>
    <circle cx="0" cy="-18" r="7" fill="#C62828"/>
    <path d="M0,5 Q-2,40 -3,75" stroke="#2E7D32" stroke-width="5" fill="none" stroke-linecap="round"/>
    <ellipse cx="-14" cy="35" rx="12" ry="6" fill="#43A047" transform="rotate(-30,-14,35)"/>
    <ellipse cx="12" cy="48" rx="11" ry="5" fill="#388E3C" transform="rotate(28,12,48)"/>
    <g transform="translate(50,20)">
      <rect x="-6" y="30" width="12" height="50" rx="2" fill="#90CAF9"/>
      <rect x="-10" y="25" width="20" height="10" rx="3" fill="#64B5F6"/>
      <path d="M-3,30 Q0,20 3,30" fill="#42A5F5" opacity="0.5"/>
    </g>
  </g>
</svg>
