<svg xmlns="http://www.w3.org/2000/svg" width="800" height="400" viewBox="0 0 800 400">
  <rect width="800" height="400" fill="#FFF3E0"/>
  <g transform="translate(320,200)">
    <ellipse cx="0" cy="-30" rx="18" ry="30" fill="#E53935" opacity="0.85"/>
    <ellipse cx="-20" cy="-15" rx="14" ry="24" fill="#EF5350" opacity="0.75" transform="rotate(-20,-20,-15)"/>
    <ellipse cx="20" cy="-15" rx="14" ry="24" fill="#EF5350" opacity="0.75" transform="rotate(20,20,-15)"/>
    <circle cx="0" cy="-12" r="8" fill="#B71C1C"/>
    <path d="M0,10 Q-2,50 -3,80" stroke="#2E7D32" stroke-width="5" fill="none" stroke-linecap="round"/>
    <ellipse cx="-12" cy="40" rx="12" ry="6" fill="#43A047" transform="rotate(-35,-12,40)"/>
  </g>
  <g transform="translate(480,190)">
    <ellipse cx="0" cy="-20" rx="8" ry="18" fill="#FFFFFF" stroke="#E0E0E0" stroke-width="1" transform="rotate(0,0,0)"/>
    <ellipse cx="0" cy="-20" rx="8" ry="18" fill="#FFFFFF" stroke="#E0E0E0" stroke-width="1" transform="rotate(60,0,0)"/>
    <ellipse cx="0" cy="-20" rx="8" ry="18" fill="#FFFFFF" stroke="#E0E0E0" stroke-width="1" transform="rotate(120,0,0)"/>
    <ellipse cx="0" cy="-20" rx="8" ry="18" fill="#FFFFFF" stroke="#E0E0E0" stroke-width="1" transform="rotate(180,0,0)"/>
    <ellipse cx="0" cy="-20" rx="8" ry="18" fill="#FFFFFF" stroke="#E0E0E0" stroke-width="1" transform="rotate(240,0,0)"/>
    <ellipse cx="0" cy="-20" rx="8" ry="18" fill="#FFFFFF" stroke="#E0E0E0" stroke-width="1" transform="rotate(300,0,0)"/>
    <circle cx="0" cy="0" r="10" fill="#FDD835"/>
    <path d="M0,12 Q-1,50 -2,80" stroke="#2E7D32" stroke-width="4" fill="none" stroke-linecap="round"/>
    <ellipse cx="10" cy="45" rx="10" ry="5" fill="#43A047" transform="rotate(30,10,45)"/>
  </g>
</svg>
