<svg xmlns="http://www.w3.org/2000/svg" width="800" height="400" viewBox="0 0 800 400">
  <rect width="800" height="400" fill="#F1F8E9"/>
  <g transform="translate(400,200)">
    <path d="M-30,50 L-35,90 L35,90 L30,50 Z" fill="#A1887F"/>
    <rect x="-35" y="45" width="70" height="10" rx="3" fill="#8D6E63"/>
    <path d="M0,45 Q-3,-10 -8,-60" stroke="#2E7D32" stroke-width="5" fill="none" stroke-linecap="round"/>
    <g transform="translate(-12,-70)">
      <ellipse cx="0" cy="-10" rx="10" ry="16" fill="#E1BEE7"/>
      <ellipse cx="-14" cy="0" rx="14" ry="7" fill="#CE93D8" transform="rotate(-15,-14,0)"/>
      <ellipse cx="14" cy="0" rx="14" ry="7" fill="#CE93D8" transform="rotate(15,14,0)"/>
      <circle cx="0" cy="2" r="5" fill="#7B1FA2"/>
    </g>
    <g transform="translate(10,-40)">
      <ellipse cx="0" cy="-8" rx="8" ry="12" fill="#F3E5F5"/>
      <ellipse cx="-10" cy="0" rx="12" ry="5" fill="#E1BEE7" transform="rotate(-15,-10,0)"/>
      <ellipse cx="10" cy="0" rx="12" ry="5" fill="#E1BEE7" transform="rotate(15,10,0)"/>
      <circle cx="0" cy="2" r="4" fill="#9C27B0"/>
    </g>
    <ellipse cx="20" cy="15" rx="18" ry="9" fill="#43A047" transform="rotate(25,20,15)"/>
    <ellipse cx="-15" cy="30" rx="16" ry="8" fill="#388E3C" transform="rotate(-30,-15,30)"/>
  </g>
</svg>
